<svg id="Capa_1" enable-background="new 0 0 511.997 511.997" height="512" viewBox="0 0 511.997 511.997" width="512" xmlns="http://www.w3.org/2000/svg"><g><path d="m452.955 47.963h-95.267c-32.556 0-59.042 26.486-59.042 59.042 0 24.284-19.757 44.041-44.041 44.041h-72.606c-4.143 0-7.5 3.357-7.5 7.5s3.357 7.5 7.5 7.5h72.606c32.556 0 59.041-26.485 59.041-59.041 0-24.285 19.757-44.042 44.042-44.042h95.267c24.285 0 44.042 19.757 44.042 44.042v41.835c0 4.143 3.357 7.5 7.5 7.5s7.5-3.357 7.5-7.5v-41.835c0-32.555-26.486-59.042-59.042-59.042z"/><path d="m504.497 176.34c-4.143 0-7.5 3.357-7.5 7.5v50.878h-481.997v-22.184c0-25.634 20.854-46.488 46.487-46.488h85.512c4.143 0 7.5-3.357 7.5-7.5s-3.357-7.5-7.5-7.5h-85.512c-33.904 0-61.487 27.584-61.487 61.489v47.918c0 5.398 2.332 10.25 6.024 13.643v164.643c0 13.948 11.348 25.296 25.296 25.296h449.356c13.948 0 25.296-11.348 25.296-25.296v-164.644c3.692-3.393 6.024-8.245 6.024-13.643 0-26.632 0-49.43 0-76.612.001-4.142-3.356-7.5-7.499-7.5zm-7.5 73.378v10.734c0 1.401-.822 2.604-2.004 3.181-.2.098-.405.171-.613.229-.05.014-.098.035-.149.046-.257.06-.519.094-.785.094-4.501 0-470.388 0-474.896 0-.266 0-.528-.034-.785-.094-.051-.012-.099-.032-.149-.046-.208-.058-.414-.131-.613-.229-1.182-.577-2.004-1.78-2.004-3.181v-10.734zm-88.499 112.516h-9.826c-1.28 0-2.322-1.042-2.322-2.322v-80.908h24.297v80.908c0 1.28-1.042 2.322-2.322 2.322zm-61 0h-9.826c-1.28 0-2.322-1.042-2.322-2.322v-80.908h24.297v80.908c0 1.28-1.041 2.322-2.321 2.322zm-61 0h-9.826c-1.28 0-2.322-1.042-2.322-2.322v-80.908h24.297v80.908c0 1.28-1.041 2.322-2.321 2.322zm-60.999 0h-9.827c-1.28 0-2.322-1.042-2.322-2.322v-80.908h24.297v80.908c0 1.28-1.041 2.322-2.321 2.322zm-61 0h-9.827c-1.28 0-2.321-1.042-2.321-2.322v-80.908h24.297v80.908c0 1.28-1.042 2.322-2.322 2.322zm-61 0h-9.827c-1.28 0-2.321-1.042-2.321-2.322v-80.908h24.297v80.908c0 1.28-1.042 2.322-2.322 2.322zm-82.475 76.504v-159.735h13.975v170.03h-3.679c-5.676.001-10.296-4.618-10.296-10.295zm28.975-159.735h26.352v80.908c0 9.552 7.771 17.322 17.321 17.322h2.327v71.8h-46zm61 98.231h2.326c9.552 0 17.322-7.771 17.322-17.322v-80.908h6.703v80.908c0 9.552 7.771 17.322 17.321 17.322h2.327v71.8h-46v-71.8zm61 0h2.326c9.552 0 17.322-7.771 17.322-17.322v-80.908h6.702v80.908c0 9.552 7.771 17.322 17.322 17.322h2.327v71.8h-46v-71.8zm61 0h2.326c9.551 0 17.321-7.771 17.321-17.322v-80.908h6.703v80.908c0 9.552 7.771 17.322 17.322 17.322h2.326v71.8h-45.999v-71.8zm60.999 0h2.327c9.551 0 17.321-7.771 17.321-17.322v-80.908h6.703v80.908c0 9.552 7.771 17.322 17.322 17.322h2.326v71.8h-46v-71.8zm61 0h2.327c9.551 0 17.321-7.771 17.321-17.322v-80.908h6.703v80.908c0 9.552 7.771 17.322 17.322 17.322h2.326v71.8h-46v-71.8zm61 71.8v-71.8h2.326c9.552 0 17.322-7.771 17.322-17.322v-80.908h26.352v170.03zm74.975-10.296c0 5.677-4.619 10.296-10.296 10.296h-3.679v-170.03h13.975z"/></g></svg>