<svg height="512pt" viewBox="0 0 512 512" width="512pt" xmlns="http://www.w3.org/2000/svg"><path d="m220.691406 370.757812h79.445313v70.621094h-79.445313zm0 0" fill="#7f8c8d"/><path d="m229.515625 388.414062h123.585937v-79.449218h-123.585937zm0 0" fill="#95a5a5"/><path d="m488.34375 15.535156c-3.304688-4.84375-7.765625-8.789062-12.976562-11.472656-5.035157-2.664062-10.640626-4.05859375-16.332032-4.0625h-406.070312c-19.5 0-35.308594 15.808594-35.308594 35.308594v282.484375h476.6875v-282.484375c-.027344-7.035156-2.113281-13.910156-6-19.773438zm0 0" fill="#3b97d3"/><path d="m494.34375 35.308594v282.484375h-464.417969c125.617188-194.472657 349.660157-283.277344 445.441407-313.730469 5.210937 2.683594 9.671874 6.628906 12.976562 11.472656 3.886719 5.863282 5.972656 12.738282 6 19.773438zm0 0" fill="#2980ba"/><path d="m450.207031 114.757812c0 29.253907-23.714843 52.964844-52.964843 52.964844-29.253907 0-52.964844-23.710937-52.964844-52.964844 0-29.25 23.710937-52.964843 52.964844-52.964843 29.25 0 52.964843 23.714843 52.964843 52.964843zm0 0" fill="#f0c419"/><path d="m308.964844 114.757812c0 29.253907-23.710938 52.964844-52.964844 52.964844s-52.964844-23.710937-52.964844-52.964844c0-29.25 23.710938-52.964843 52.964844-52.964843s52.964844 23.714843 52.964844 52.964843zm0 0" fill="#f0c419"/><path d="m167.722656 114.757812c0 29.253907-23.710937 52.964844-52.964844 52.964844-29.25 0-52.964843-23.710937-52.964843-52.964844 0-29.25 23.714843-52.964843 52.964843-52.964843 29.253907 0 52.964844 23.714843 52.964844 52.964843zm0 0" fill="#f0c419"/><path d="m229.515625 459.035156h123.585937v-35.3125h-123.585937zm0 0" fill="#95a5a5"/><path d="m304.992188 275.15625c-.449219-.347656-.957032-.617188-1.5-.792969-.527344-.269531-1.097657-.449219-1.6875-.53125-1.128907-.265625-2.304688-.265625-3.433594 0-.550782.097657-1.085938.273438-1.585938.53125-.566406.191407-1.105468.460938-1.597656.792969l-1.316406 1.058594c-1.617188 1.691406-2.53125 3.929687-2.5625 6.269531-.027344 1.15625.214844 2.304687.707031 3.351563 1.273437 3.363281 4.527344 5.558593 8.121094 5.472656 2.339843-.03125 4.574219-.945313 6.269531-2.558594.796875-.84375 1.425781-1.832031 1.851562-2.914062.453126-1.058594.695313-2.199219.707032-3.351563-.035156-2.339844-.949219-4.578125-2.558594-6.269531-.441406-.351563-.890625-.707032-1.414062-1.058594zm0 0" fill="#e6e7e8"/><path d="m247.171875 220.691406h17.65625c4.875 0 8.828125-3.953125 8.828125-8.828125s-3.953125-8.828125-8.828125-8.828125h-17.65625c-4.875 0-8.828125 3.953125-8.828125 8.828125s3.953125 8.828125 8.828125 8.828125zm0 0" fill="#e6e7e8"/><path d="m300.136719 220.691406h35.3125c4.875 0 8.828125-3.953125 8.828125-8.828125s-3.953125-8.828125-8.828125-8.828125h-35.3125c-4.875 0-8.828125 3.953125-8.828125 8.828125s3.953125 8.828125 8.828125 8.828125zm0 0" fill="#e6e7e8"/><path d="m273.65625 238.34375h-26.484375c-4.875 0-8.828125 3.953125-8.828125 8.828125s3.953125 8.828125 8.828125 8.828125h26.484375c4.875 0 8.828125-3.953125 8.828125-8.828125s-3.953125-8.828125-8.828125-8.828125zm0 0" fill="#e6e7e8"/><path d="m335.449219 238.34375h-26.484375c-4.875 0-8.828125 3.953125-8.828125 8.828125s3.953125 8.828125 8.828125 8.828125h26.484375c4.875 0 8.828125-3.953125 8.828125-8.828125s-3.953125-8.828125-8.828125-8.828125zm0 0" fill="#e6e7e8"/><path d="m264.828125 273.65625h-17.65625c-4.875 0-8.828125 3.949219-8.828125 8.828125 0 4.875 3.953125 8.824219 8.828125 8.824219h17.65625c4.875 0 8.828125-3.949219 8.828125-8.824219 0-4.878906-3.953125-8.828125-8.828125-8.828125zm0 0" fill="#e6e7e8"/><path d="m361.929688 176.550781h123.585937c14.628906 0 26.484375 11.859375 26.484375 26.484375v282.480469c0 14.628906-11.855469 26.484375-26.484375 26.484375h-123.585937c-14.625 0-26.480469-11.855469-26.480469-26.484375v-282.480469c0-14.625 11.855469-26.484375 26.480469-26.484375zm0 0" fill="#bdc3c7"/><path d="m335.449219 229.515625v229.519531h176.550781v-229.519531zm0 0" fill="#2980ba"/><path d="m512 229.515625v5.121094c-37.164062 30.542969-124.203125 108.492187-176.550781 207.535156v-212.65625zm0 0" fill="#3b97d3"/><path d="m370.757812 397.242188h61.792969c4.875 0 8.828125-3.953126 8.828125-8.828126s-3.953125-8.828124-8.828125-8.828124h-61.792969c-4.875 0-8.828124 3.953124-8.828124 8.828124s3.953124 8.828126 8.828124 8.828126zm0 0" fill="#e6e7e8"/><path d="m467.863281 397.242188h8.828125c4.875 0 8.824219-3.953126 8.824219-8.828126s-3.949219-8.828124-8.824219-8.828124h-8.828125c-4.875 0-8.828125 3.953124-8.828125 8.828124s3.953125 8.828126 8.828125 8.828126zm0 0" fill="#e6e7e8"/><path d="m379.585938 414.898438h-8.828126c-4.875 0-8.828124 3.949218-8.828124 8.824218s3.953124 8.828125 8.828124 8.828125h8.828126c4.875 0 8.828124-3.953125 8.828124-8.828125s-3.953124-8.824218-8.828124-8.824218zm0 0" fill="#e6e7e8"/><path d="m476.691406 414.898438h-61.792968c-4.878907 0-8.828126 3.949218-8.828126 8.824218s3.949219 8.828125 8.828126 8.828125h61.792968c4.875 0 8.824219-3.953125 8.824219-8.828125s-3.949219-8.824218-8.824219-8.824218zm0 0" fill="#e6e7e8"/><path d="m423.722656 264.828125c24.378906 0 44.140625 19.761719 44.140625 44.136719 0 24.378906-19.761719 44.136718-44.140625 44.136718-24.375 0-44.136718-19.757812-44.136718-44.136718 0-24.375 19.761718-44.136719 44.136718-44.136719zm0 0" fill="#f0c419"/><path d="m432.550781 494.34375v17.65625h-17.652343v-17.65625c0-4.875 3.949218-8.828125 8.824218-8.828125s8.828125 3.953125 8.828125 8.828125zm0 0" fill="#7f8c8d"/><path d="m26.484375 141.242188h194.207031c14.625 0 26.480469 11.855468 26.480469 26.480468v317.792969c0 14.628906-11.855469 26.484375-26.480469 26.484375h-194.207031c-14.628906 0-26.484375-11.855469-26.484375-26.484375v-317.792969c0-14.625 11.855469-26.480468 26.484375-26.480468zm0 0" fill="#bdc3c7"/><path d="m0 194.207031h247.171875v264.828125h-247.171875zm0 0" fill="#2980ba"/><path d="m246.820312 194.207031c-50.230468 20.304688-160.929687 83.683594-240.992187 264.828125h-5.828125v-264.828125zm0 0" fill="#3b97d3"/><path d="m114.757812 512v-17.65625c0-4.875 3.953126-8.828125 8.828126-8.828125s8.828124 3.953125 8.828124 8.828125v17.65625zm0 0" fill="#7f8c8d"/><g fill="#e6e7e8"><path d="m97.101562 361.929688h-61.792968c-4.875 0-8.824219-3.949219-8.824219-8.828126 0-4.875 3.949219-8.824218 8.824219-8.824218h61.792968c4.878907 0 8.828126 3.949218 8.828126 8.824218 0 4.878907-3.949219 8.828126-8.828126 8.828126zm0 0"/><path d="m211.863281 361.929688h-8.828125c-4.875 0-8.828125-3.949219-8.828125-8.828126 0-4.875 3.953125-8.824218 8.828125-8.824218h8.828125c4.875 0 8.828125 3.949218 8.828125 8.824218 0 4.878907-3.953125 8.828126-8.828125 8.828126zm0 0"/><path d="m167.722656 361.929688h-35.308594c-4.875 0-8.828124-3.949219-8.828124-8.828126 0-4.875 3.953124-8.824218 8.828124-8.824218h35.308594c4.875 0 8.828125 3.949218 8.828125 8.824218 0 4.878907-3.953125 8.828126-8.828125 8.828126zm0 0"/><path d="m44.136719 397.242188h-8.828125c-4.875 0-8.824219-3.953126-8.824219-8.828126s3.949219-8.828124 8.824219-8.828124h8.828125c4.875 0 8.828125 3.953124 8.828125 8.828124s-3.953125 8.828126-8.828125 8.828126zm0 0"/><path d="m211.863281 397.242188h-132.414062c-4.875 0-8.828125-3.953126-8.828125-8.828126s3.953125-8.828124 8.828125-8.828124h132.414062c4.875 0 8.828125 3.953124 8.828125 8.828124s-3.953125 8.828126-8.828125 8.828126zm0 0"/><path d="m150.070312 432.550781h-8.828124c-4.875 0-8.828126-3.953125-8.828126-8.828125s3.953126-8.824218 8.828126-8.824218h8.828124c4.875 0 8.828126 3.949218 8.828126 8.824218s-3.953126 8.828125-8.828126 8.828125zm0 0"/><path d="m105.929688 432.550781h-70.621094c-4.875 0-8.824219-3.953125-8.824219-8.828125s3.949219-8.824218 8.824219-8.824218h70.621094c4.875 0 8.828124 3.949218 8.828124 8.824218s-3.953124 8.828125-8.828124 8.828125zm0 0"/></g><path d="m105.929688 282.484375c0 19.5-15.808594 35.308594-35.308594 35.308594s-35.3125-15.808594-35.3125-35.308594c0-19.503906 15.8125-35.3125 35.3125-35.3125s35.308594 15.808594 35.308594 35.3125zm0 0" fill="#f0c419"/><path d="m211.863281 282.484375c0 19.5-15.808593 35.308594-35.3125 35.308594-19.5 0-35.308593-15.808594-35.308593-35.308594 0-19.503906 15.808593-35.3125 35.308593-35.3125 19.503907 0 35.3125 15.808594 35.3125 35.3125zm0 0" fill="#f0c419"/></svg>