<svg id="Capa_1" enable-background="new 0 0 511.996 511.996" height="512" viewBox="0 0 511.996 511.996" width="512" xmlns="http://www.w3.org/2000/svg"><g><path d="m260.964 214.702c0-6.359 0-158.583 0-166.198 0-9.981-8.121-18.103-18.103-18.103h-152.423c-9.981 0-18.103 8.121-18.103 18.103v166.198c0 9.981 8.121 18.103 18.103 18.103h152.424c9.981 0 18.102-8.121 18.102-18.103zm-173.629-166.198c0-1.711 1.392-3.103 3.103-3.103h152.424c1.711 0 3.103 1.392 3.103 3.103v11.21h-158.63zm158.629 166.198c0 1.711-1.392 3.103-3.103 3.103h-152.423c-1.711 0-3.103-1.392-3.103-3.103v-139.988h158.629z"/><path d="m138.644 202.585c11.813-3.948 19.408-14.303 19.008-24.698v-41.202l46.042-8.153v19.458c-5.81-2-12.392-1.98-18.633.109-13.944 4.66-22.016 18.247-17.991 30.289 4.024 12.042 18.641 18.047 32.587 13.387 11.647-3.892 19.191-14.015 19.017-24.261.007-.133.02-.265.02-.4 0-6.615 0-59.046 0-67.02 0-8.156-6.742-12.918-13.359-11.745l-53.289 9.437c-5.443.963-9.394 5.673-9.394 11.201v49.827c-5.61-1.93-12.178-2.052-18.604.095-13.944 4.66-22.016 18.247-17.992 30.289 3.979 11.908 18.35 18.148 32.588 13.387zm56.259-25.036c-5.998 2.002-12.228.211-13.606-3.914-1.379-4.126 2.522-9.305 8.52-11.309 6.001-2.007 12.251-.138 13.606 3.913 1.377 4.127-2.524 9.306-8.52 11.31zm8.791-64.249-46.042 8.153v-9.426l46.042-8.154zm-74.892 59.836c6.003-2.004 12.229-.208 13.606 3.914 1.379 4.126-2.522 9.305-8.52 11.309-6.242 2.089-12.306-.021-13.606-3.914-1.377-4.127 2.524-9.305 8.52-11.309z"/><path d="m205.933 318.996c0-21.661-17.622-39.283-39.283-39.283s-39.284 17.622-39.284 39.283 17.623 39.283 39.284 39.283 39.283-17.622 39.283-39.283zm-39.283 24.283c-13.391 0-24.284-10.894-24.284-24.283s10.894-24.283 24.284-24.283 24.283 10.894 24.283 24.283-10.893 24.283-24.283 24.283z"/><path d="m170.197 311.496h-7.094c-4.143 0-7.5 3.357-7.5 7.5s3.357 7.5 7.5 7.5h7.094c4.143 0 7.5-3.357 7.5-7.5s-3.358-7.5-7.5-7.5z"/><path d="m255.306 257.517c0-4.143-3.357-7.5-7.5-7.5h-7.094c-4.143 0-7.5 3.357-7.5 7.5s3.357 7.5 7.5 7.5h7.094c4.143 0 7.5-3.358 7.5-7.5z"/><path d="m100.087 257.517c0-4.143-3.357-7.5-7.5-7.5h-7.094c-4.143 0-7.5 3.357-7.5 7.5s3.357 7.5 7.5 7.5h7.094c4.143 0 7.5-3.358 7.5-7.5z"/><path d="m446.497 59.714h-3.719c-2.537-7.924-9.969-13.681-18.724-13.681h-8.993c-10.841 0-19.661 8.82-19.661 19.661v25.932c0 10.841 8.82 19.661 19.661 19.661h8.993c1.608 0 3.164-.215 4.661-.582v20.534c0 8.753 5.476 16.234 13.175 19.246v159.936c0 18.118-14.74 32.858-32.858 32.858h-72.876v-192.794c7.699-3.011 13.175-10.493 13.175-19.246v-20.534c1.497.366 3.053.582 4.661.582h8.993c10.841 0 19.661-8.82 19.661-19.661v-25.932c0-10.841-8.82-19.661-19.661-19.661h-8.993c-8.755 0-16.187 5.756-18.724 13.681h-3.719c-12.994 0-23.566 10.572-23.566 23.566v47.959c0 8.753 5.476 16.234 13.174 19.245v307.157c0 21.7-17.654 39.354-39.354 39.354s-39.354-17.654-39.354-39.354v-1.121c8.842-3.105 15.201-11.533 15.201-21.422v-14.911h3.241c16.806 0 30.479-13.673 30.479-30.479v-146.903c0-4.143-3.357-7.5-7.5-7.5s-7.5 3.357-7.5 7.5v146.904c0 8.535-6.943 15.479-15.479 15.479-22.56 0-165.401 0-188.477 0-8.535 0-15.479-6.943-15.479-15.479v-359.23c-.002-8.536 6.941-15.479 15.477-15.479h188.477c8.535 0 15.479 6.943 15.479 15.479v177.326c0 4.143 3.357 7.5 7.5 7.5s7.5-3.357 7.5-7.5v-177.326c-.001-16.806-13.674-30.479-30.48-30.479h-188.476c-16.806 0-30.479 13.673-30.479 30.479v359.23c0 16.806 13.673 30.479 30.479 30.479h139.833v14.911c0 9.89 6.359 18.317 15.201 21.422v1.121c0 29.971 24.384 54.354 54.354 54.354s54.354-24.384 54.354-54.354v-99.362h72.876c26.39 0 47.858-21.469 47.858-47.858v-159.937c7.698-3.011 13.174-10.493 13.174-19.245v-47.96c.001-12.994-10.571-23.566-23.565-23.566zm-219.252 360.474h15.402v14.911c0 4.246-3.455 7.701-7.701 7.701s-7.701-3.455-7.701-7.701zm122.085-354.494c0-2.526 2.135-4.661 4.661-4.661h8.993c2.526 0 4.661 2.135 4.661 4.661v25.932c0 2.526-2.135 4.661-4.661 4.661h-8.993c-2.526 0-4.661-2.135-4.661-4.661 0-15.232 0-10.839 0-25.932zm-26.349 17.586c0-4.724 3.843-8.566 8.566-8.566h2.782v56.525c0 3.129-2.546 5.675-5.675 5.675s-5.674-2.546-5.674-5.675v-47.959zm132.082 0v47.959c0 3.129-2.545 5.675-5.674 5.675s-5.675-2.546-5.675-5.675c0-6.56 0-49.726 0-56.525h2.782c4.724 0 8.567 3.843 8.567 8.566zm-31.01 13.007h-8.993c-2.526 0-4.661-2.135-4.661-4.661v-25.932c0-2.526 2.135-4.661 4.661-4.661h8.993c2.526 0 4.661 2.135 4.661 4.661v25.932c0 2.526-2.134 4.661-4.661 4.661z"/><path d="m186.074 392.259c33.19-8.807 56.372-38.933 56.372-73.263 0-41.794-34.002-75.796-75.796-75.796-41.795 0-75.797 34.002-75.797 75.796 0 34.328 23.182 64.455 56.373 73.263 4.012 1.064 8.112-1.328 9.173-5.325 1.062-4.004-1.322-8.11-5.325-9.173-26.625-7.065-45.221-31.23-45.221-58.765 0-33.523 27.273-60.796 60.797-60.796s60.796 27.272 60.796 60.796c0 27.535-18.595 51.7-45.22 58.765-4.003 1.062-6.388 5.169-5.325 9.173 1.062 4.003 5.168 6.389 9.173 5.325z"/></g></svg>