<svg height="512pt" viewBox="0 0 512 512" width="512pt" xmlns="http://www.w3.org/2000/svg"><path d="m185.378906 423.722656h141.242188v70.621094h-141.242188zm0 0" fill="#7f8c8d"/><path d="m141.242188 476.691406h229.515624c14.625 0 26.484376 11.855469 26.484376 26.480469v8.828125h-282.484376v-8.828125c0-14.625 11.859376-26.480469 26.484376-26.480469zm0 0" fill="#95a5a5"/><path d="m512 370.757812v35.3125c0 19.5-15.808594 35.308594-35.308594 35.308594h-441.382812c-19.5 0-35.308594-15.808594-35.308594-35.308594v-35.3125zm0 0" fill="#95a5a5"/><path d="m512 35.308594v353.105468h-273.65625v-388.414062h238.347656c19.5 0 35.308594 15.808594 35.308594 35.308594zm0 0" fill="#2980ba"/><path d="m256 0v388.414062h-256v-353.105468c0-19.5 15.808594-35.308594 35.308594-35.308594zm0 0" fill="#35495e"/><path d="m326.621094 35.308594h123.585937c14.625 0 26.484375 11.859375 26.484375 26.484375v264.828125c0 14.625-11.859375 26.480468-26.484375 26.480468h-123.585937c-14.625 0-26.484375-11.855468-26.484375-26.480468v-264.828125c0-14.625 11.859375-26.484375 26.484375-26.484375zm0 0" fill="#bdc3c7"/><path d="m300.136719 88.277344h176.554687v211.859375h-176.554687zm0 0" fill="#b0d3f0"/><path d="m35.308594 61.792969h52.96875c4.875 0 8.824218-3.953125 8.824218-8.828125s-3.949218-8.828125-8.824218-8.828125h-52.96875c-4.875 0-8.824219 3.953125-8.824219 8.828125s3.949219 8.828125 8.824219 8.828125zm0 0" fill="#e64c3c"/><path d="m123.585938 61.792969h17.65625c4.875 0 8.828124-3.953125 8.828124-8.828125s-3.953124-8.828125-8.828124-8.828125h-17.65625c-4.875 0-8.828126 3.953125-8.828126 8.828125s3.953126 8.828125 8.828126 8.828125zm0 0" fill="#f0c419"/><path d="m79.449219 88.277344c0 4.875 3.953125 8.824218 8.828125 8.824218h97.101562c4.875 0 8.828125-3.949218 8.828125-8.824218s-3.953125-8.828125-8.828125-8.828125h-97.101562c-4.875 0-8.828125 3.953125-8.828125 8.828125zm0 0" fill="#f0c419"/><path d="m35.308594 97.101562h17.65625c4.875 0 8.828125-3.949218 8.828125-8.824218s-3.953125-8.828125-8.828125-8.828125h-17.65625c-4.875 0-8.824219 3.953125-8.824219 8.828125s3.949219 8.824218 8.824219 8.824218zm0 0" fill="#e64c3c"/><path d="m185.378906 167.722656h-97.101562c-4.875 0-8.828125 3.953125-8.828125 8.828125s3.953125 8.828125 8.828125 8.828125h97.101562c4.875 0 8.828125-3.953125 8.828125-8.828125s-3.953125-8.828125-8.828125-8.828125zm0 0" fill="#f0c419"/><path d="m35.308594 185.378906h17.65625c4.875 0 8.828125-3.953125 8.828125-8.828125s-3.953125-8.828125-8.828125-8.828125h-17.65625c-4.875 0-8.824219 3.953125-8.824219 8.828125s3.949219 8.828125 8.824219 8.828125zm0 0" fill="#e64c3c"/><path d="m70.621094 220.691406h97.101562c4.875 0 8.828125-3.953125 8.828125-8.828125s-3.953125-8.828125-8.828125-8.828125h-97.101562c-4.875 0-8.828125 3.953125-8.828125 8.828125s3.953125 8.828125 8.828125 8.828125zm0 0" fill="#e64c3c"/><path d="m220.691406 203.035156h-17.65625c-4.875 0-8.828125 3.953125-8.828125 8.828125s3.953125 8.828125 8.828125 8.828125h17.65625c4.875 0 8.824219-3.953125 8.824219-8.828125s-3.949219-8.828125-8.824219-8.828125zm0 0" fill="#14a085"/><path d="m114.757812 123.585938c0 4.875 3.953126 8.828124 8.828126 8.828124h97.105468c4.875 0 8.824219-3.953124 8.824219-8.828124s-3.949219-8.828126-8.824219-8.828126h-97.105468c-4.875 0-8.828126 3.953126-8.828126 8.828126zm0 0" fill="#14a085"/><path d="m70.621094 132.414062h17.65625c4.875 0 8.824218-3.953124 8.824218-8.828124s-3.949218-8.828126-8.824218-8.828126h-17.65625c-4.875 0-8.828125 3.953126-8.828125 8.828126s3.953125 8.828124 8.828125 8.828124zm0 0" fill="#e64c3c"/><path d="m35.308594 273.65625h52.96875c4.875 0 8.824218-3.953125 8.824218-8.828125s-3.949218-8.828125-8.824218-8.828125h-52.96875c-4.875 0-8.824219 3.953125-8.824219 8.828125s3.949219 8.828125 8.824219 8.828125zm0 0" fill="#e64c3c"/><path d="m123.585938 273.65625h17.65625c4.875 0 8.828124-3.953125 8.828124-8.828125s-3.953124-8.828125-8.828124-8.828125h-17.65625c-4.875 0-8.828126 3.953125-8.828126 8.828125s3.953126 8.828125 8.828126 8.828125zm0 0" fill="#f0c419"/><path d="m79.449219 300.136719c0 4.875 3.953125 8.828125 8.828125 8.828125h97.101562c4.875 0 8.828125-3.953125 8.828125-8.828125s-3.953125-8.828125-8.828125-8.828125h-97.101562c-4.875 0-8.828125 3.953125-8.828125 8.828125zm0 0" fill="#14a085"/><path d="m52.964844 291.308594h-17.65625c-4.875 0-8.824219 3.953125-8.824219 8.828125s3.949219 8.828125 8.824219 8.828125h17.65625c4.875 0 8.828125-3.953125 8.828125-8.828125s-3.953125-8.828125-8.828125-8.828125zm0 0" fill="#e64c3c"/><path d="m220.691406 326.621094h-97.105468c-4.875 0-8.828126 3.953125-8.828126 8.828125s3.953126 8.828125 8.828126 8.828125h97.105468c4.875 0 8.824219-3.953125 8.824219-8.828125s-3.949219-8.828125-8.824219-8.828125zm0 0" fill="#f0c419"/><path d="m88.277344 326.621094h-17.65625c-4.875 0-8.828125 3.953125-8.828125 8.828125s3.953125 8.828125 8.828125 8.828125h17.65625c4.875 0 8.824218-3.953125 8.824218-8.828125s-3.949218-8.828125-8.824218-8.828125zm0 0" fill="#e64c3c"/><g fill="#fff"><path d="m335.449219 238.34375h61.792969c4.875 0 8.828124-3.949219 8.828124-8.828125 0-4.875-3.953124-8.824219-8.828124-8.824219h-61.792969c-4.875 0-8.828125 3.949219-8.828125 8.824219 0 4.878906 3.953125 8.828125 8.828125 8.828125zm0 0"/><path d="m432.550781 238.34375h8.828125c4.875 0 8.828125-3.949219 8.828125-8.828125 0-4.875-3.953125-8.824219-8.828125-8.824219h-8.828125c-4.875 0-8.828125 3.949219-8.828125 8.824219 0 4.878906 3.953125 8.828125 8.828125 8.828125zm0 0"/><path d="m344.277344 256h-8.828125c-4.875 0-8.828125 3.953125-8.828125 8.828125s3.953125 8.828125 8.828125 8.828125h8.828125c4.875 0 8.824218-3.953125 8.824218-8.828125s-3.949218-8.828125-8.824218-8.828125zm0 0"/><path d="m441.378906 256h-61.792968c-4.875 0-8.828126 3.953125-8.828126 8.828125s3.953126 8.828125 8.828126 8.828125h61.792968c4.875 0 8.828125-3.953125 8.828125-8.828125s-3.953125-8.828125-8.828125-8.828125zm0 0"/></g><path d="m344.277344 123.585938h88.273437c4.875 0 8.828125 3.953124 8.828125 8.828124v52.964844c0 4.875-3.953125 8.828125-8.828125 8.828125h-88.273437c-4.875 0-8.828125-3.953125-8.828125-8.828125v-52.964844c0-4.875 3.953125-8.828124 8.828125-8.828124zm0 0" fill="#f29c1f"/><path d="m379.585938 353.101562v-17.652343c0-4.875 3.953124-8.828125 8.828124-8.828125s8.828126 3.953125 8.828126 8.828125v17.652343zm0 0" fill="#95a5a5"/></svg>